<?xml version="1.0" standalone="no"?><!DOCTYPE svg PUBLIC "-//W3C//DTD SVG 1.1//EN" "http://www.w3.org/Graphics/SVG/1.1/DTD/svg11.dtd"><svg t="1709715253630" class="icon" viewBox="0 0 1024 1024" version="1.1" xmlns="http://www.w3.org/2000/svg" p-id="7001" xmlns:xlink="http://www.w3.org/1999/xlink" width="200" height="200"><path d="M742.784 163.328l-22.656-82.112L786.304 64l54.336 196.672-198.528 51.52-18.112-65.536 82.496-21.44a360.96 360.96 0 0 0-282.88-41.344c-192.32 51.2-306.432 247.68-254.912 438.848 51.52 191.104 249.216 304.512 441.472 253.312a359.04 359.04 0 0 0 266.176-317.632l71.872 5.696a430.784 430.784 0 0 1-319.36 381.12c-230.784 61.44-467.968-74.624-529.792-304-61.824-229.312 75.072-465.088 305.92-526.528a433.536 433.536 0 0 1 337.792 48.64z" fill="#ffffff" p-id="7002"></path></svg>